<svg width="220" height="41" viewBox="0 0 220 41" fill="none" xmlns="http://www.w3.org/2000/svg">
<path d="M0 26.6675V40.2792L2.60787 39.6469V29.2485H19.9847V26.6675H2.86204H2.60787H0Z" fill="white"/>
<path d="M0 24.0375V10.4258L2.60787 11.0581V21.4565H19.9847V24.0375H2.86204H2.60787H0Z" fill="white"/>
<path d="M25.2172 13.6118V0L22.6094 0.634402V11.0328H5.23047V13.6118H22.3531H22.6094H25.2172Z" fill="white"/>
<path d="M25.2175 16.2427V29.8565L22.6096 29.2221V18.8237H5.23071V16.2427H22.3534H22.6096H25.2175Z" fill="white"/>
<path d="M73.5574 23.0406C74.2689 23.0406 74.952 22.9009 75.591 22.6266C76.2275 22.3524 76.7864 21.9695 77.2547 21.4882C77.7204 21.0095 78.093 20.4429 78.3672 19.809C78.6415 19.1725 78.7812 18.4817 78.7812 17.7547C78.7812 17.0276 78.6415 16.3394 78.3672 15.7003C78.093 15.0664 77.7204 14.4998 77.2547 14.0212C76.789 13.5399 76.2275 13.157 75.591 12.8827C74.952 12.6085 74.2689 12.4688 73.5574 12.4688H59.8729V14.4713H73.5574C73.9998 14.4713 74.4215 14.5567 74.8122 14.7249C75.2029 14.8957 75.5522 15.1337 75.8446 15.4313C76.1395 15.7314 76.375 16.0833 76.5458 16.4765C76.7139 16.8672 76.7993 17.2967 76.7993 17.7521C76.7993 18.2075 76.7139 18.6266 76.5432 19.0302C76.3724 19.4364 76.1395 19.7883 75.8446 20.0833C75.5496 20.3782 75.2003 20.6163 74.8071 20.7948C74.419 20.9707 73.9972 21.0587 73.5548 21.0587H59.8704V27.8117H61.8523V23.038H68.9959L75.5496 27.8117H78.8433L72.3103 23.038H73.5548L73.5574 23.0406Z" fill="white"/>
<path d="M85.8862 12.4688H83.9043V27.8117H85.8862V12.4688Z" fill="white"/>
<path d="M99.3375 21.1318H108.763V23.4811C108.763 23.7967 108.701 24.1021 108.582 24.3867C108.46 24.6739 108.29 24.9274 108.075 25.1422C107.86 25.3569 107.607 25.5303 107.327 25.6493C107.05 25.7683 106.742 25.8304 106.411 25.8304H96.1033C95.785 25.8304 95.4797 25.7683 95.1951 25.6493C94.9105 25.5303 94.6595 25.3595 94.4526 25.1447C94.243 24.93 94.0748 24.6739 93.9532 24.3867C93.8342 24.1021 93.7721 23.7967 93.7721 23.4785V16.798C93.7721 16.4798 93.8342 16.1745 93.9532 15.8924C94.0748 15.6052 94.2404 15.3569 94.45 15.1473C94.657 14.9403 94.9079 14.7721 95.1951 14.6505C95.4797 14.5315 95.785 14.4694 96.1033 14.4694H108.352L108.867 12.4668H96.1033C95.5185 12.4668 94.9571 12.5806 94.4319 12.8057C93.9066 13.0308 93.4487 13.3465 93.0632 13.7449C92.6828 14.1408 92.3749 14.6065 92.1524 15.1266C91.9273 15.6518 91.8135 16.2133 91.8135 16.798V23.4785C91.8135 24.0762 91.9273 24.6454 92.1524 25.1706C92.3749 25.6933 92.6828 26.1538 93.0657 26.5445C93.4487 26.9352 93.9066 27.2457 94.4319 27.4708C94.9571 27.6959 95.5185 27.8097 96.1033 27.8097H106.453C107.037 27.8097 107.596 27.6959 108.114 27.4708C108.631 27.2457 109.087 26.9352 109.469 26.5445C109.85 26.1538 110.158 25.6933 110.38 25.1706C110.605 24.6454 110.719 24.0762 110.719 23.4785V19.1473H99.8213L99.3323 21.1292L99.3375 21.1318Z" fill="white"/>
<path d="M127.467 23.0406H128.712C129.423 23.0406 130.106 22.9009 130.743 22.6266C131.379 22.3524 131.941 21.9695 132.406 21.4882C132.872 21.0095 133.245 20.4429 133.519 19.809C133.793 19.17 133.933 18.4791 133.933 17.7547C133.933 17.0302 133.793 16.3394 133.519 15.7003C133.245 15.0664 132.872 14.4998 132.406 14.0212C131.938 13.5399 131.379 13.157 130.743 12.8827C130.104 12.6085 129.421 12.4688 128.712 12.4688H115.027V14.4713H128.712C129.154 14.4713 129.576 14.5567 129.967 14.7249C130.357 14.8957 130.707 15.1337 130.999 15.4313C131.294 15.7314 131.529 16.0833 131.7 16.4765C131.868 16.8672 131.954 17.2967 131.954 17.7521C131.954 18.2075 131.868 18.6266 131.697 19.0302C131.527 19.4364 131.291 19.7909 130.999 20.0833C130.704 20.3782 130.357 20.6163 129.961 20.7948C129.573 20.9707 129.152 21.0587 128.709 21.0587H115.025V27.8117H117.007V23.038H124.15L130.704 27.8117H134L127.467 23.038V23.0406Z" fill="white"/>
<path d="M46.2351 14.4713H46.2765V27.8117H48.2584V14.4713H56.2403L56.7268 12.4688H46.2351V14.4713Z" fill="white"/>
<path d="M34.2918 14.4718H42.2764V27.8121H44.2557V14.4718H44.2971V12.4692H33.8054L34.2918 14.4718Z" fill="white"/>
<path d="M147.46 20H158.12V21H147.46V20ZM158.42 13V14H147.16L148.06 13.1V28H146.94V13H158.42ZM161.88 20.4H168.64C169.747 20.4 170.633 20.1133 171.3 19.54C171.967 18.9533 172.3 18.1733 172.3 17.2C172.3 16.2267 171.967 15.4533 171.3 14.88C170.633 14.2933 169.747 14 168.64 14H161.72L162.22 13.5V28H161.1V13H168.54C169.513 13 170.36 13.18 171.08 13.54C171.813 13.8867 172.387 14.38 172.8 15.02C173.213 15.6467 173.42 16.3733 173.42 17.2C173.42 18.0267 173.213 18.76 172.8 19.4C172.387 20.0267 171.813 20.52 171.08 20.88C170.36 21.2267 169.513 21.4 168.54 21.4H161.88V20.4ZM165.56 20.98H167.08L173.66 28H172.14L165.56 20.98ZM187.553 20V21H177.573V20H187.553ZM178.213 20.5L176.973 27.9L176.253 27H188.053V28H175.853L177.113 20.5L175.853 13H187.953V14H176.253L176.973 13.12L178.213 20.5ZM202.28 20V21H192.3V20H202.28ZM192.94 20.5L191.7 27.9L190.98 27H202.78V28H190.58L191.84 20.5L190.58 13H202.68V14H190.98L191.7 13.12L192.94 20.5Z" fill="white"/>
</svg>
