<svg width="220" height="41" viewBox="0 0 220 41" fill="none" xmlns="http://www.w3.org/2000/svg">
<path d="M0 26.6675V40.2792L2.60787 39.6469V29.2485H19.9847V26.6675H2.86204H2.60787H0Z" fill="white"/>
<path d="M0 24.0375V10.4258L2.60787 11.0581V21.4565H19.9847V24.0375H2.86204H2.60787H0Z" fill="white"/>
<path d="M25.2172 13.6118V0L22.6094 0.634402V11.0328H5.23047V13.6118H22.3531H22.6094H25.2172Z" fill="white"/>
<path d="M25.2175 16.2427V29.8565L22.6096 29.2221V18.8237H5.23071V16.2427H22.3534H22.6096H25.2175Z" fill="white"/>
<path d="M73.5574 23.0406C74.2689 23.0406 74.952 22.9009 75.591 22.6266C76.2275 22.3524 76.7864 21.9695 77.2547 21.4882C77.7204 21.0095 78.093 20.4429 78.3672 19.809C78.6415 19.1725 78.7812 18.4817 78.7812 17.7547C78.7812 17.0276 78.6415 16.3394 78.3672 15.7003C78.093 15.0664 77.7204 14.4998 77.2547 14.0212C76.789 13.5399 76.2275 13.157 75.591 12.8827C74.952 12.6085 74.2689 12.4688 73.5574 12.4688H59.8729V14.4713H73.5574C73.9998 14.4713 74.4215 14.5567 74.8122 14.7249C75.2029 14.8957 75.5522 15.1337 75.8446 15.4313C76.1395 15.7314 76.375 16.0833 76.5458 16.4765C76.7139 16.8672 76.7993 17.2967 76.7993 17.7521C76.7993 18.2075 76.7139 18.6266 76.5432 19.0302C76.3724 19.4364 76.1395 19.7883 75.8446 20.0833C75.5496 20.3782 75.2003 20.6163 74.8071 20.7948C74.419 20.9707 73.9972 21.0587 73.5548 21.0587H59.8704V27.8117H61.8523V23.038H68.9959L75.5496 27.8117H78.8433L72.3103 23.038H73.5548L73.5574 23.0406Z" fill="white"/>
<path d="M85.8862 12.4688H83.9043V27.8117H85.8862V12.4688Z" fill="white"/>
<path d="M99.3375 21.1318H108.763V23.4811C108.763 23.7967 108.701 24.1021 108.582 24.3867C108.46 24.6739 108.29 24.9274 108.075 25.1422C107.86 25.3569 107.607 25.5303 107.327 25.6493C107.05 25.7683 106.742 25.8304 106.411 25.8304H96.1033C95.785 25.8304 95.4797 25.7683 95.1951 25.6493C94.9105 25.5303 94.6595 25.3595 94.4526 25.1447C94.243 24.93 94.0748 24.6739 93.9532 24.3867C93.8342 24.1021 93.7721 23.7967 93.7721 23.4785V16.798C93.7721 16.4798 93.8342 16.1745 93.9532 15.8924C94.0748 15.6052 94.2404 15.3569 94.45 15.1473C94.657 14.9403 94.9079 14.7721 95.1951 14.6505C95.4797 14.5315 95.785 14.4694 96.1033 14.4694H108.352L108.867 12.4668H96.1033C95.5185 12.4668 94.9571 12.5806 94.4319 12.8057C93.9066 13.0308 93.4487 13.3465 93.0632 13.7449C92.6828 14.1408 92.3749 14.6065 92.1524 15.1266C91.9273 15.6518 91.8135 16.2133 91.8135 16.798V23.4785C91.8135 24.0762 91.9273 24.6454 92.1524 25.1706C92.3749 25.6933 92.6828 26.1538 93.0657 26.5445C93.4487 26.9352 93.9066 27.2457 94.4319 27.4708C94.9571 27.6959 95.5185 27.8097 96.1033 27.8097H106.453C107.037 27.8097 107.596 27.6959 108.114 27.4708C108.631 27.2457 109.087 26.9352 109.469 26.5445C109.85 26.1538 110.158 25.6933 110.38 25.1706C110.605 24.6454 110.719 24.0762 110.719 23.4785V19.1473H99.8213L99.3323 21.1292L99.3375 21.1318Z" fill="white"/>
<path d="M127.467 23.0406H128.712C129.423 23.0406 130.106 22.9009 130.743 22.6266C131.379 22.3524 131.941 21.9695 132.406 21.4882C132.872 21.0095 133.245 20.4429 133.519 19.809C133.793 19.17 133.933 18.4791 133.933 17.7547C133.933 17.0302 133.793 16.3394 133.519 15.7003C133.245 15.0664 132.872 14.4998 132.406 14.0212C131.938 13.5399 131.379 13.157 130.743 12.8827C130.104 12.6085 129.421 12.4688 128.712 12.4688H115.027V14.4713H128.712C129.154 14.4713 129.576 14.5567 129.967 14.7249C130.357 14.8957 130.707 15.1337 130.999 15.4313C131.294 15.7314 131.529 16.0833 131.7 16.4765C131.868 16.8672 131.954 17.2967 131.954 17.7521C131.954 18.2075 131.868 18.6266 131.697 19.0302C131.527 19.4364 131.291 19.7909 130.999 20.0833C130.704 20.3782 130.357 20.6163 129.961 20.7948C129.573 20.9707 129.152 21.0587 128.709 21.0587H115.025V27.8117H117.007V23.038H124.15L130.704 27.8117H134L127.467 23.038V23.0406Z" fill="white"/>
<path d="M46.2351 14.4713H46.2765V27.8117H48.2584V14.4713H56.2403L56.7268 12.4688H46.2351V14.4713Z" fill="white"/>
<path d="M34.2918 14.4718H42.2764V27.8121H44.2557V14.4718H44.2971V12.4692H33.8054L34.2918 14.4718Z" fill="white"/>
<path d="M154.38 13C155.353 13 156.2 13.18 156.92 13.54C157.653 13.8867 158.227 14.38 158.64 15.02C159.053 15.6467 159.26 16.3733 159.26 17.2C159.26 18.0267 159.053 18.76 158.64 19.4C158.227 20.0267 157.653 20.52 156.92 20.88C156.2 21.2267 155.353 21.4 154.38 21.4H147.42V20.4H154.4C155.52 20.4 156.413 20.1133 157.08 19.54C157.76 18.9533 158.1 18.1733 158.1 17.2C158.1 16.2267 157.76 15.4533 157.08 14.88C156.413 14.2933 155.52 14 154.4 14H147.56L148.06 13.5V28H146.94V13H154.38ZM162.544 20.4H169.304C170.411 20.4 171.298 20.1133 171.964 19.54C172.631 18.9533 172.964 18.1733 172.964 17.2C172.964 16.2267 172.631 15.4533 171.964 14.88C171.298 14.2933 170.411 14 169.304 14H162.384L162.884 13.5V28H161.764V13H169.204C170.178 13 171.024 13.18 171.744 13.54C172.478 13.8867 173.051 14.38 173.464 15.02C173.878 15.6467 174.084 16.3733 174.084 17.2C174.084 18.0267 173.878 18.76 173.464 19.4C173.051 20.0267 172.478 20.52 171.744 20.88C171.024 21.2267 170.178 21.4 169.204 21.4H162.544V20.4ZM166.224 20.98H167.744L174.324 28H172.804L166.224 20.98ZM184.417 28.24C182.791 28.24 181.351 27.9133 180.097 27.26C178.857 26.6067 177.891 25.7 177.197 24.54C176.504 23.3667 176.157 22.0133 176.157 20.48C176.157 18.96 176.504 17.62 177.197 16.46C177.891 15.3 178.857 14.3933 180.097 13.74C181.351 13.0867 182.797 12.76 184.437 12.76C186.064 12.76 187.497 13.0867 188.737 13.74C189.977 14.3933 190.944 15.3 191.637 16.46C192.331 17.62 192.677 18.96 192.677 20.48C192.677 22.0133 192.331 23.3667 191.637 24.54C190.944 25.7 189.977 26.6067 188.737 27.26C187.497 27.9133 186.057 28.24 184.417 28.24ZM184.417 27.2C185.857 27.2 187.111 26.9267 188.177 26.38C189.244 25.82 190.064 25.04 190.637 24.04C191.224 23.0267 191.517 21.84 191.517 20.48C191.517 19.1333 191.224 17.96 190.637 16.96C190.064 15.96 189.244 15.1867 188.177 14.64C187.111 14.08 185.857 13.8 184.417 13.8C182.977 13.8 181.724 14.08 180.657 14.64C179.604 15.1867 178.784 15.96 178.197 16.96C177.611 17.96 177.317 19.14 177.317 20.5C177.317 21.8467 177.611 23.0267 178.197 24.04C178.784 25.04 179.604 25.82 180.657 26.38C181.724 26.9267 182.977 27.2 184.417 27.2Z" fill="white"/>
</svg>
