<svg width="50" height="50" viewBox="0 0 50 50" fill="none" xmlns="http://www.w3.org/2000/svg">
<mask id="path-1-outside-1_6356_6282" maskUnits="userSpaceOnUse" x="15.7714" y="10.9142" width="18" height="29" fill="black">
<rect fill="white" x="15.7714" y="10.9142" width="18" height="29"/>
<path d="M24.0589 38.4984V12.6566H25.3813V38.4984H24.0589ZM29.7421 20.4092C29.6277 19.2584 29.1196 18.3432 28.2178 17.6635C27.316 16.9838 26.1821 16.6439 24.816 16.6439C23.8537 16.6439 23.0057 16.8088 22.2722 17.1386C21.5454 17.4683 20.9734 17.9259 20.5561 18.5114C20.1456 19.0902 19.9404 19.7497 19.9404 20.4899C19.9404 21.035 20.0581 21.5128 20.2937 21.9233C20.5292 22.3338 20.8455 22.6871 21.2426 22.9833C21.6463 23.2726 22.0905 23.5216 22.575 23.7302C23.0663 23.9389 23.5609 24.1138 24.0589 24.2552L26.2393 24.881C26.8988 25.0627 27.5583 25.2949 28.2178 25.5775C28.8773 25.8602 29.4796 26.2168 30.0247 26.6475C30.5766 27.0715 31.0173 27.5931 31.3471 28.2122C31.6836 28.8246 31.8518 29.5615 31.8518 30.4229C31.8518 31.5265 31.5658 32.5191 30.9938 33.4007C30.4218 34.2823 29.6008 34.9822 28.5307 35.5004C27.4607 36.0118 26.1787 36.2676 24.6848 36.2676C23.2783 36.2676 22.0568 36.0354 21.0205 35.571C19.9841 35.1 19.1698 34.4506 18.5776 33.6228C17.9854 32.7951 17.6523 31.8361 17.5783 30.7459H19.5164C19.5837 31.5602 19.8529 32.25 20.324 32.8152C20.795 33.3805 21.4074 33.8112 22.1611 34.1073C22.9149 34.3967 23.7561 34.5414 24.6848 34.5414C25.7144 34.5414 26.6296 34.3698 27.4305 34.0266C28.238 33.6766 28.8706 33.1921 29.3282 32.573C29.7926 31.9471 30.0247 31.2203 30.0247 30.3926C30.0247 29.6927 29.843 29.1072 29.4796 28.6361C29.1162 28.1583 28.6081 27.7579 27.9554 27.4349C27.3093 27.1119 26.559 26.8259 25.7043 26.5769L23.2312 25.8501C21.6093 25.3655 20.3509 24.6959 19.4558 23.8413C18.5608 22.9866 18.1133 21.8964 18.1133 20.5707C18.1133 19.4603 18.4094 18.4845 19.0016 17.6433C19.6005 16.7954 20.4081 16.1359 21.4243 15.6648C22.4472 15.187 23.5946 14.9481 24.8665 14.9481C26.1518 14.9481 27.2891 15.1836 28.2784 15.6547C29.2676 16.1258 30.0516 16.7752 30.6304 17.6029C31.2159 18.4239 31.5288 19.3593 31.5692 20.4092H29.7421Z"/>
</mask>
<path d="M24.0589 38.4984V12.6566H25.3813V38.4984H24.0589ZM29.7421 20.4092C29.6277 19.2584 29.1196 18.3432 28.2178 17.6635C27.316 16.9838 26.1821 16.6439 24.816 16.6439C23.8537 16.6439 23.0057 16.8088 22.2722 17.1386C21.5454 17.4683 20.9734 17.9259 20.5561 18.5114C20.1456 19.0902 19.9404 19.7497 19.9404 20.4899C19.9404 21.035 20.0581 21.5128 20.2937 21.9233C20.5292 22.3338 20.8455 22.6871 21.2426 22.9833C21.6463 23.2726 22.0905 23.5216 22.575 23.7302C23.0663 23.9389 23.5609 24.1138 24.0589 24.2552L26.2393 24.881C26.8988 25.0627 27.5583 25.2949 28.2178 25.5775C28.8773 25.8602 29.4796 26.2168 30.0247 26.6475C30.5766 27.0715 31.0173 27.5931 31.3471 28.2122C31.6836 28.8246 31.8518 29.5615 31.8518 30.4229C31.8518 31.5265 31.5658 32.5191 30.9938 33.4007C30.4218 34.2823 29.6008 34.9822 28.5307 35.5004C27.4607 36.0118 26.1787 36.2676 24.6848 36.2676C23.2783 36.2676 22.0568 36.0354 21.0205 35.571C19.9841 35.1 19.1698 34.4506 18.5776 33.6228C17.9854 32.7951 17.6523 31.8361 17.5783 30.7459H19.5164C19.5837 31.5602 19.8529 32.25 20.324 32.8152C20.795 33.3805 21.4074 33.8112 22.1611 34.1073C22.9149 34.3967 23.7561 34.5414 24.6848 34.5414C25.7144 34.5414 26.6296 34.3698 27.4305 34.0266C28.238 33.6766 28.8706 33.1921 29.3282 32.573C29.7926 31.9471 30.0247 31.2203 30.0247 30.3926C30.0247 29.6927 29.843 29.1072 29.4796 28.6361C29.1162 28.1583 28.6081 27.7579 27.9554 27.4349C27.3093 27.1119 26.559 26.8259 25.7043 26.5769L23.2312 25.8501C21.6093 25.3655 20.3509 24.6959 19.4558 23.8413C18.5608 22.9866 18.1133 21.8964 18.1133 20.5707C18.1133 19.4603 18.4094 18.4845 19.0016 17.6433C19.6005 16.7954 20.4081 16.1359 21.4243 15.6648C22.4472 15.187 23.5946 14.9481 24.8665 14.9481C26.1518 14.9481 27.2891 15.1836 28.2784 15.6547C29.2676 16.1258 30.0516 16.7752 30.6304 17.6029C31.2159 18.4239 31.5288 19.3593 31.5692 20.4092H29.7421Z" fill="white"/>
<path d="M24.0589 38.4984H22.8745V39.6828H24.0589V38.4984ZM24.0589 12.6566V11.4722H22.8745V12.6566H24.0589ZM25.3813 12.6566H26.5657V11.4722H25.3813V12.6566ZM25.3813 38.4984V39.6828H26.5657V38.4984H25.3813ZM29.7421 20.4092L28.5635 20.5263L28.6696 21.5936H29.7421V20.4092ZM28.2178 17.6635L28.9307 16.7176L28.9307 16.7176L28.2178 17.6635ZM22.2722 17.1386L21.7866 16.0583L21.7828 16.06L22.2722 17.1386ZM20.5561 18.5114L19.5916 17.824L19.5901 17.8262L20.5561 18.5114ZM20.2937 21.9233L19.2664 22.5128L19.2664 22.5128L20.2937 21.9233ZM21.2426 22.9833L20.5345 23.9327L20.5435 23.9394L20.5526 23.946L21.2426 22.9833ZM22.575 23.7302L22.1066 24.8181L22.1121 24.8204L22.575 23.7302ZM24.0589 24.2552L24.3857 23.1167L24.3823 23.1157L24.0589 24.2552ZM26.2393 24.881L25.9125 26.0195L25.9247 26.0229L26.2393 24.881ZM30.0247 26.6475L29.2904 27.5769L29.2968 27.5819L29.3031 27.5868L30.0247 26.6475ZM31.3471 28.2122L30.3017 28.769L30.3053 28.7758L30.3091 28.7825L31.3471 28.2122ZM30.9938 33.4007L30.0002 32.756H30.0002L30.9938 33.4007ZM28.5307 35.5004L29.0415 36.569L29.047 36.5664L28.5307 35.5004ZM21.0205 35.571L20.5304 36.6493L20.5362 36.6519L21.0205 35.571ZM17.5783 30.7459V29.5615H16.3107L16.3966 30.8261L17.5783 30.7459ZM19.5164 30.7459L20.6968 30.6483L20.607 29.5615H19.5164V30.7459ZM22.1611 34.1073L21.7281 35.2098L21.7366 35.2131L22.1611 34.1073ZM27.4305 34.0266L27.897 35.1152L27.9014 35.1133L27.4305 34.0266ZM29.3282 32.573L28.377 31.8673L28.3757 31.869L29.3282 32.573ZM29.4796 28.6361L28.5369 29.3532L28.5418 29.3596L29.4796 28.6361ZM27.9554 27.4349L27.4257 28.4943L27.4301 28.4965L27.9554 27.4349ZM25.7043 26.5769L25.3704 27.7132L25.373 27.714L25.7043 26.5769ZM23.2312 25.8501L22.8921 26.9849L22.8972 26.9864L23.2312 25.8501ZM19.4558 23.8413L20.2738 22.9847V22.9847L19.4558 23.8413ZM19.0016 17.6433L18.0342 16.96L18.0331 16.9615L19.0016 17.6433ZM21.4243 15.6648L21.9224 16.7393L21.9255 16.7379L21.4243 15.6648ZM28.2784 15.6547L27.7692 16.724L27.7692 16.724L28.2784 15.6547ZM30.6304 17.6029L29.6597 18.2816L29.6661 18.2906L30.6304 17.6029ZM31.5692 20.4092V21.5936H32.8L32.7527 20.3636L31.5692 20.4092ZM25.2433 38.4984V12.6566H22.8745V38.4984H25.2433ZM24.0589 13.841H25.3813V11.4722H24.0589V13.841ZM24.1969 12.6566V38.4984H26.5657V12.6566H24.1969ZM25.3813 37.314H24.0589V39.6828H25.3813V37.314ZM30.9207 20.292C30.7745 18.8211 30.1038 17.6018 28.9307 16.7176L27.5049 18.6093C28.1354 19.0845 28.4809 19.6957 28.5635 20.5263L30.9207 20.292ZM28.9307 16.7176C27.7833 15.8528 26.384 15.4595 24.816 15.4595V17.8284C25.9803 17.8284 26.8488 18.1148 27.5049 18.6093L28.9307 16.7176ZM24.816 15.4595C23.7186 15.4595 22.6998 15.6478 21.7866 16.0583L22.7578 18.2188C23.3117 17.9699 23.9887 17.8284 24.816 17.8284V15.4595ZM21.7828 16.06C20.8874 16.4662 20.143 17.0503 19.5916 17.824L21.5207 19.1988C21.8038 18.8015 22.2034 18.4704 22.7616 18.2172L21.7828 16.06ZM19.5901 17.8262C19.0311 18.6142 18.756 19.5154 18.756 20.4899H21.1248C21.1248 19.9839 21.2601 19.5661 21.5222 19.1966L19.5901 17.8262ZM18.756 20.4899C18.756 21.2101 18.9131 21.8972 19.2664 22.5128L21.321 21.3339C21.2031 21.1285 21.1248 20.86 21.1248 20.4899H18.756ZM19.2664 22.5128C19.5863 23.0704 20.0137 23.5443 20.5345 23.9327L21.9506 22.0338C21.6773 21.83 21.4721 21.5973 21.321 21.3339L19.2664 22.5128ZM20.5526 23.946C21.0297 24.2879 21.5488 24.5779 22.1066 24.8181L23.0434 22.6424C22.6322 22.4653 22.263 22.2574 21.9325 22.0205L20.5526 23.946ZM22.1121 24.8204C22.6474 25.0478 23.1886 25.2394 23.7356 25.3946L24.3823 23.1157C23.9332 22.9883 23.4852 22.83 23.038 22.6401L22.1121 24.8204ZM23.7321 25.3936L25.9125 26.0195L26.5661 23.7426L24.3857 23.1167L23.7321 25.3936ZM25.9247 26.0229C26.53 26.1896 27.1387 26.4037 27.7513 26.6662L28.6844 24.4889C27.9779 24.1861 27.2677 23.9358 26.5539 23.7391L25.9247 26.0229ZM27.7513 26.6662C28.3181 26.9091 28.8298 27.2129 29.2904 27.5769L30.759 25.7182C30.1294 25.2207 29.4366 24.8113 28.6844 24.4889L27.7513 26.6662ZM29.3031 27.5868C29.7199 27.907 30.0507 28.2977 30.3017 28.769L32.3925 27.6554C31.984 26.8884 31.4332 26.2361 30.7463 25.7083L29.3031 27.5868ZM30.3091 28.7825C30.5296 29.1839 30.6674 29.715 30.6674 30.4229H33.0362C33.0362 29.4079 32.8376 28.4652 32.3851 27.6418L30.3091 28.7825ZM30.6674 30.4229C30.6674 31.3098 30.4413 32.0763 30.0002 32.756L31.9874 34.0454C32.6904 32.962 33.0362 31.7433 33.0362 30.4229H30.6674ZM30.0002 32.756C29.5607 33.4333 28.9161 33.9978 28.0145 34.4344L29.047 36.5664C30.2854 35.9666 31.2828 35.1313 31.9874 34.0454L30.0002 32.756ZM28.02 34.4318C27.1453 34.8498 26.0466 35.0831 24.6848 35.0831V37.452C26.3109 37.452 27.7762 37.1738 29.0415 36.569L28.02 34.4318ZM24.6848 35.0831C23.4065 35.0831 22.357 34.872 21.5048 34.4902L20.5362 36.6519C21.7567 37.1987 23.1501 37.452 24.6848 37.452V35.0831ZM21.5106 34.4928C20.6404 34.0973 19.9984 33.5731 19.5409 32.9336L17.6144 34.312C18.3413 35.328 19.3278 36.1027 20.5304 36.6493L21.5106 34.4928ZM19.5409 32.9336C19.086 32.2979 18.8202 31.5533 18.76 30.6656L16.3966 30.8261C16.4844 32.1188 16.8848 33.2922 17.6144 34.312L19.5409 32.9336ZM17.5783 31.9303H19.5164V29.5615H17.5783V31.9303ZM18.336 30.8434C18.4211 31.8725 18.77 32.8006 19.4141 33.5735L21.2339 32.057C20.9358 31.6994 20.7463 31.2478 20.6968 30.6483L18.336 30.8434ZM19.4141 33.5735C20.0251 34.3067 20.8081 34.8483 21.7281 35.2097L22.5942 33.0049C22.0068 32.7742 21.565 32.4543 21.2339 32.057L19.4141 33.5735ZM21.7366 35.2131C22.6446 35.5617 23.6325 35.7258 24.6848 35.7258V33.357C23.8797 33.357 23.1852 33.2318 22.5857 33.0016L21.7366 35.2131ZM24.6848 35.7258C25.8461 35.7258 26.9245 35.532 27.897 35.1152L26.9639 32.9379C26.3348 33.2076 25.5827 33.357 24.6848 33.357V35.7258ZM27.9014 35.1133C28.8725 34.6925 29.6822 34.0867 30.2807 33.277L28.3757 31.869C28.059 32.2975 27.6035 32.6608 26.9595 32.9398L27.9014 35.1133ZM30.2794 33.2787C30.9049 32.4356 31.2091 31.4577 31.2091 30.3926H28.8403C28.8403 30.983 28.6802 31.4586 28.377 31.8673L30.2794 33.2787ZM31.2091 30.3926C31.2091 29.4789 30.9677 28.626 30.4174 27.9127L28.5418 29.3596C28.7183 29.5884 28.8403 29.9065 28.8403 30.3926H31.2091ZM30.4224 27.9191C29.9271 27.268 29.2629 26.7604 28.4807 26.3734L27.4301 28.4965C27.9534 28.7554 28.3053 29.0487 28.5369 29.3532L30.4224 27.9191ZM28.4851 26.3755C27.7627 26.0144 26.9435 25.7043 26.0356 25.4397L25.373 27.714C26.1744 27.9475 26.8559 28.2094 27.4257 28.4943L28.4851 26.3755ZM26.0383 25.4405L23.5651 24.7137L22.8972 26.9864L25.3704 27.7132L26.0383 25.4405ZM23.5702 24.7152C22.0652 24.2656 20.993 23.6714 20.2738 22.9847L18.6379 24.6979C19.7088 25.7205 21.1535 26.4655 22.8921 26.9849L23.5702 24.7152ZM20.2738 22.9847C19.6308 22.3707 19.2977 21.5985 19.2977 20.5707H16.9289C16.9289 22.1943 17.4908 23.6026 18.6379 24.6979L20.2738 22.9847ZM19.2977 20.5707C19.2977 19.684 19.5297 18.9507 19.9701 18.3251L18.0331 16.9615C17.2891 18.0183 16.9289 19.2366 16.9289 20.5707H19.2977ZM19.969 18.3266C20.439 17.6612 21.0789 17.1304 21.9224 16.7393L20.9261 14.5902C19.7373 15.1413 18.762 15.9295 18.0342 16.96L19.969 18.3266ZM21.9255 16.7379C22.7727 16.3422 23.7458 16.1325 24.8665 16.1325V13.7637C23.4434 13.7637 22.1216 14.0318 20.923 14.5917L21.9255 16.7379ZM24.8665 16.1325C26.0059 16.1325 26.9642 16.3407 27.7692 16.724L28.7876 14.5853C27.614 14.0265 26.2977 13.7637 24.8665 13.7637V16.1325ZM27.7692 16.724C28.5896 17.1147 29.2082 17.6359 29.6597 18.2816L31.6011 16.9242C30.895 15.9144 29.9457 15.1368 28.7876 14.5853L27.7692 16.724ZM29.6661 18.2906C30.1116 18.9154 30.3537 19.6255 30.3856 20.4547L32.7527 20.3636C32.7039 19.0932 32.3201 17.9325 31.5947 16.9152L29.6661 18.2906ZM31.5692 19.2248H29.7421V21.5936H31.5692V19.2248Z" fill="white" mask="url(#path-1-outside-1_6356_6282)"/>
<circle cx="24.6857" cy="24.6857" r="24.3429" stroke="white" stroke-width="0.685714"/>
</svg>
