<svg width="166" height="50" viewBox="0 0 166 50" fill="none" xmlns="http://www.w3.org/2000/svg">
<path d="M0.5 33.0513V49.8389L3.71633 49.059V36.2345H25.1475V33.0513H4.0298H3.71633H0.5Z" fill="white"/>
<path d="M0.5 29.8069V13.0193L3.71633 13.7992V26.6237H25.1475V29.8069H4.0298H3.71633H0.5Z" fill="white"/>
<path d="M31.6007 16.949V0.161377L28.3844 0.943795V13.7683H6.95068V16.949H28.0683H28.3844H31.6007Z" fill="white"/>
<path d="M31.6007 20.1936V36.9837L28.3844 36.2013V23.3768H6.95068V20.1936H28.0683H28.3844H31.6007Z" fill="white"/>
<path d="M91.2193 28.5785C92.0968 28.5785 92.9392 28.4062 93.7274 28.0679C94.5124 27.7297 95.2016 27.2574 95.7792 26.6639C96.3536 26.0735 96.8131 25.3747 97.1513 24.5929C97.4896 23.8079 97.6619 22.9559 97.6619 22.0593C97.6619 21.1626 97.4896 20.3138 97.1513 19.5256C96.8131 18.7438 96.3536 18.045 95.7792 17.4546C95.2048 16.8611 94.5124 16.3888 93.7274 16.0506C92.9392 15.7124 92.0968 15.54 91.2193 15.54H74.3421V18.0099H91.2193C91.7649 18.0099 92.2851 18.1152 92.7669 18.3226C93.2488 18.5332 93.6795 18.8268 94.0401 19.1937C94.4039 19.5639 94.6943 19.9979 94.9049 20.4829C95.1123 20.9647 95.2176 21.4945 95.2176 22.0561C95.2176 22.6177 95.1123 23.1346 94.9017 23.6324C94.6911 24.1334 94.4039 24.5674 94.0401 24.9312C93.6763 25.2949 93.2456 25.5885 92.7605 25.8087C92.2819 26.0257 91.7617 26.1342 91.2161 26.1342H74.3389V34.4627H76.7832V28.5753H85.5935L93.6763 34.4627H97.7385L89.6812 28.5753H91.2161L91.2193 28.5785Z" fill="white"/>
<path d="M106.424 15.54H103.98V34.4627H106.424V15.54Z" fill="white"/>
<path d="M123.014 26.2235H134.639V29.121C134.639 29.5103 134.563 29.8868 134.416 30.2378C134.266 30.592 134.055 30.9047 133.79 31.1696C133.525 31.4344 133.213 31.6482 132.868 31.795C132.527 31.9418 132.147 32.0184 131.738 32.0184H119.026C118.633 32.0184 118.257 31.9418 117.906 31.795C117.554 31.6482 117.245 31.4376 116.99 31.1728C116.731 30.9079 116.524 30.592 116.374 30.2378C116.227 29.8868 116.15 29.5103 116.15 29.1178V20.8786C116.15 20.4861 116.227 20.1096 116.374 19.7618C116.524 19.4076 116.728 19.1012 116.986 18.8427C117.242 18.5875 117.551 18.38 117.906 18.2301C118.257 18.0833 118.633 18.0067 119.026 18.0067H134.132L134.767 15.5369H119.026C118.304 15.5369 117.612 15.6773 116.964 15.9549C116.316 16.2325 115.752 16.6218 115.276 17.1132C114.807 17.6014 114.427 18.1758 114.153 18.8172C113.875 19.465 113.735 20.1574 113.735 20.8786V29.1178C113.735 29.8549 113.875 30.5569 114.153 31.2047C114.427 31.8493 114.807 32.4173 115.279 32.8991C115.752 33.381 116.316 33.7639 116.964 34.0415C117.612 34.3191 118.304 34.4595 119.026 34.4595H131.79C132.511 34.4595 133.2 34.3191 133.838 34.0415C134.476 33.7639 135.038 33.381 135.51 32.8991C135.979 32.4173 136.359 31.8493 136.633 31.2047C136.911 30.5569 137.052 29.8549 137.052 29.1178V23.776H123.611L123.008 26.2203L123.014 26.2235Z" fill="white"/>
<path d="M157.707 28.5785H159.242C160.119 28.5785 160.962 28.4062 161.747 28.0679C162.532 27.7297 163.224 27.2574 163.798 26.6639C164.373 26.0735 164.832 25.3747 165.171 24.5929C165.509 23.8047 165.681 22.9527 165.681 22.0593C165.681 21.1658 165.509 20.3138 165.171 19.5256C164.832 18.7438 164.373 18.045 163.798 17.4546C163.221 16.8611 162.532 16.3888 161.747 16.0506C160.958 15.7124 160.116 15.54 159.242 15.54H142.365V18.0099H159.242C159.787 18.0099 160.308 18.1152 160.789 18.3226C161.271 18.5332 161.702 18.8268 162.063 19.1937C162.426 19.5639 162.717 19.9979 162.927 20.4829C163.135 20.9647 163.24 21.4945 163.24 22.0561C163.24 22.6177 163.135 23.1346 162.924 23.6324C162.714 24.1334 162.423 24.5706 162.063 24.9312C161.699 25.2949 161.271 25.5885 160.783 25.8087C160.304 26.0257 159.784 26.1342 159.239 26.1342H142.361V34.4627H144.806V28.5753H153.616L161.699 34.4627H165.764L157.707 28.5753V28.5785Z" fill="white"/>
<path d="M57.522 18.0099H57.573V34.4627H60.0173V18.0099H69.8616L70.4615 15.54H57.522V18.0099Z" fill="white"/>
<path d="M42.7923 18.0101H52.6397V34.4629H55.0808V18.0101H55.1319V15.5403H42.1924L42.7923 18.0101Z" fill="white"/>
</svg>
