<svg width="242" height="242" viewBox="0 0 242 242" fill="none" xmlns="http://www.w3.org/2000/svg">
<path fill-rule="evenodd" clip-rule="evenodd" d="M120.775 241.549C187.477 241.549 241.549 187.477 241.549 120.775C241.549 54.0727 187.477 0 120.775 0C54.0727 0 0 54.0727 0 120.775C0 187.477 54.0727 241.549 120.775 241.549ZM171.263 96.7457C173.978 94.0306 173.978 89.6284 171.263 86.9132C168.547 84.198 164.145 84.198 161.43 86.9132L108.455 139.889L80.1151 111.548C77.3999 108.833 72.9977 108.833 70.2825 111.548C67.5673 114.263 67.5673 118.665 70.2824 121.381L103.538 154.637C104.842 155.941 106.611 156.674 108.455 156.674C110.299 156.674 112.067 155.941 113.371 154.637L171.263 96.7457Z" fill="#9CC94D"/>
</svg>
